<?xml version="1.0" standalone="no"?>
<!DOCTYPE svg PUBLIC "-//W3C//DTD SVG 20010904//EN"
 "http://www.w3.org/TR/2001/REC-SVG-20010904/DTD/svg10.dtd">
<svg version="1.0" xmlns="http://www.w3.org/2000/svg"
 width="494.000000pt" height="494.000000pt" viewBox="0 0 494.000000 494.000000"
 preserveAspectRatio="xMidYMid meet">
<metadata>
Created by potrace 1.14, written by Peter Selinger 2001-2017
</metadata>
<g transform="translate(0.000000,494.000000) scale(0.100000,-0.100000)"
fill="#000000" stroke="none">
<path d="M2600 3606 c-6 -8 -18 -12 -26 -9 -8 3 -21 0 -29 -7 -8 -6 -18 -9
-23 -6 -11 6 -72 -61 -63 -69 3 -4 -2 -11 -12 -16 -9 -6 -17 -19 -17 -29 0
-10 -5 -30 -12 -44 -9 -20 -14 -23 -25 -15 -7 6 -13 20 -13 30 0 22 -16 34
-24 17 -4 -7 -5 -4 -2 8 2 14 -10 36 -35 65 -21 24 -39 47 -39 52 0 4 -5 7
-10 7 -7 0 -9 -25 -6 -70 4 -50 2 -69 -5 -64 -6 4 -27 10 -46 14 -29 7 -38 4
-59 -17 -21 -21 -27 -23 -41 -11 -15 12 -16 9 -10 -24 6 -40 -6 -50 -32 -25
-8 6 -11 7 -8 1 4 -7 -10 -18 -33 -27 l-39 -15 -15 39 c-9 21 -19 39 -23 39
-5 0 -9 -21 -10 -46 -2 -32 -9 -53 -23 -66 -16 -15 -18 -23 -10 -38 8 -15 6
-20 -8 -25 -9 -3 -30 -17 -46 -31 l-28 -25 31 -28 c36 -32 41 -73 15 -123 -9
-16 -11 -27 -5 -24 6 4 0 -15 -13 -41 -80 -163 -84 -188 -89 -553 -2 -139 -6
-192 -17 -212 -8 -16 -18 -28 -22 -28 -13 0 -8 -63 7 -95 7 -16 14 -23 15 -15
1 10 4 9 9 -5 4 -11 4 -33 -2 -50 -12 -40 7 -111 34 -126 11 -6 22 -9 24 -7 4
4 8 110 6 151 -1 20 -5 26 -13 21 -10 -6 -10 -4 -2 7 15 18 22 70 29 199 11
207 13 217 60 325 44 100 55 130 55 154 0 42 46 126 77 140 18 8 29 9 31 3 2
-6 16 -3 34 6 23 13 32 14 35 5 3 -9 10 -10 22 -3 10 5 31 8 47 6 16 -1 41 1
56 5 31 8 108 -8 123 -26 14 -17 53 -25 58 -12 3 9 10 9 28 1 26 -12 38 -12
111 0 26 5 56 5 65 1 10 -4 32 -7 49 -6 22 2 33 -3 38 -15 6 -16 7 -16 20 1
10 15 27 18 83 18 38 0 74 -2 79 -5 5 -3 28 -9 51 -13 23 -4 41 -11 40 -16 -1
-5 16 -22 37 -37 22 -15 41 -36 43 -47 2 -11 6 -30 8 -42 1 -11 7 -32 11 -45
5 -12 9 -32 9 -43 1 -11 14 -46 28 -78 48 -105 53 -160 17 -182 -8 -5 -6 -11
6 -19 15 -11 15 -13 1 -13 -21 0 -25 14 -24 65 2 30 -2 42 -12 42 -7 0 -11 -6
-8 -15 4 -8 2 -17 -4 -20 -5 -4 -6 -12 -2 -18 12 -20 12 -36 0 -44 -7 -3 -9
-3 -5 2 4 4 1 20 -7 36 -8 15 -13 34 -12 41 2 7 2 10 0 7 -2 -3 -25 5 -51 18
-44 23 -56 24 -174 21 -114 -4 -130 -6 -162 -29 -20 -13 -36 -28 -36 -32 0 -4
-10 -22 -22 -38 -19 -26 -23 -44 -23 -107 0 -66 3 -82 24 -109 14 -18 33 -33
43 -33 10 0 21 -6 24 -14 5 -14 32 -27 82 -41 23 -7 23 -6 8 24 -20 37 -20 61
-2 61 8 0 16 5 18 10 2 6 20 13 41 17 33 5 37 3 37 -15 0 -19 5 -21 53 -17 28
3 62 7 75 9 19 4 22 1 20 -21 -2 -15 3 -28 11 -31 10 -3 13 2 9 21 -4 19 -1
24 9 20 8 -3 13 0 11 8 -2 9 6 14 20 14 18 0 27 -8 36 -37 10 -29 11 -35 1
-31 -7 2 -16 0 -20 -6 -3 -6 1 -11 9 -11 9 0 16 -7 16 -15 0 -8 -4 -15 -8 -15
-5 0 -7 -26 -6 -57 1 -31 -1 -51 -5 -44 -4 6 -8 -21 -8 -61 0 -40 -8 -98 -17
-128 -9 -30 -18 -64 -21 -75 -2 -11 -9 -29 -14 -40 -5 -11 -12 -36 -15 -55 -5
-27 -14 -38 -39 -50 -21 -10 -33 -23 -35 -39 -3 -16 -6 -20 -11 -12 -6 10 -12
9 -23 -3 -9 -8 -18 -13 -21 -10 -7 7 -28 -32 -26 -49 5 -37 -3 -68 -18 -74
-25 -10 -55 -42 -48 -53 4 -6 -4 -10 -17 -10 -18 0 -20 2 -8 10 12 8 10 10 -8
10 -13 0 -20 4 -17 10 12 19 -5 31 -28 19 -12 -7 -19 -8 -15 -4 4 5 3 14 -2
20 -12 15 -4 63 15 89 15 20 57 25 88 12 13 -6 17 -3 17 13 0 12 5 30 12 41
10 15 9 22 -5 38 -9 10 -14 22 -10 26 11 11 12 36 1 36 -5 0 -26 18 -45 40
-32 35 -64 56 -49 31 4 -5 -9 -4 -28 1 -39 12 -52 41 -36 83 5 14 10 41 10 58
-1 27 -2 29 -11 15 -14 -25 -26 -22 -33 6 -4 15 -17 28 -35 34 -26 9 -31 7
-50 -19 -12 -16 -36 -32 -54 -37 -29 -8 -36 -5 -72 30 -48 47 -76 47 -90 1
-11 -38 -20 -41 -35 -12 -9 15 -8 33 1 70 12 48 20 54 59 50 11 -1 10 3 -4 14
-18 14 -22 13 -50 -12 -17 -16 -36 -35 -43 -43 -22 -24 -8 -87 27 -131 37 -47
34 -70 -15 -89 -19 -7 -32 -17 -29 -22 3 -4 -14 -8 -36 -8 -26 0 -51 -7 -66
-19 -20 -16 -22 -20 -9 -37 9 -13 10 -23 4 -31 -7 -7 -1 -20 17 -38 18 -18 27
-38 28 -65 2 -46 16 -67 16 -26 0 28 0 28 25 12 52 -34 91 -57 108 -62 9 -4
17 -10 17 -15 0 -5 7 -9 15 -9 18 0 20 -26 3 -36 -8 -5 -6 -11 6 -20 10 -7 19
-20 20 -30 2 -14 18 -21 70 -29 36 -6 68 -10 70 -8 2 2 9 -4 17 -14 8 -9 9
-14 3 -10 -7 4 -14 0 -18 -8 -8 -22 27 -19 49 5 20 22 37 18 28 -8 -7 -16 -5
-16 20 1 26 17 27 17 48 -4 l20 -20 -20 -18 c-11 -10 -18 -21 -15 -24 4 -3 -5
-9 -20 -13 -14 -3 -24 -10 -21 -14 3 -4 -9 -13 -25 -19 -19 -6 -30 -6 -30 0 0
15 -54 -2 -68 -22 -10 -15 -17 -16 -37 -7 -19 8 -32 8 -51 -1 -23 -10 -28 -9
-46 14 -19 24 -21 25 -34 8 -13 -17 -15 -17 -29 1 -13 17 -18 18 -39 7 -27
-15 -54 -9 -86 19 -13 11 -30 20 -39 20 -19 -1 93 -107 127 -121 13 -5 20 -14
16 -20 -4 -7 0 -9 13 -5 11 4 36 -1 56 -9 20 -8 40 -14 44 -13 18 4 80 -16
117 -39 l39 -25 -24 -19 c-13 -10 -31 -19 -39 -19 -19 0 -40 -19 -40 -37 0
-14 58 -11 69 3 7 10 71 12 65 3 -2 -4 3 -9 11 -13 10 -3 15 1 15 13 0 10 6
24 14 30 11 9 15 7 19 -9 3 -11 1 -23 -5 -26 -11 -7 9 -24 27 -24 6 0 3 5 -5
10 -12 7 -12 10 -1 10 7 0 11 6 8 14 -4 10 0 12 14 9 15 -4 18 -2 13 11 -7 18
7 21 23 5 9 -9 11 -5 9 15 -3 19 1 26 10 22 9 -3 11 0 7 11 -4 11 -2 14 5 9 7
-4 12 -2 12 4 0 5 12 23 28 39 50 53 72 81 72 92 0 5 5 7 10 4 6 -4 9 -3 8 2
-4 15 14 55 33 74 10 10 19 28 19 38 0 18 27 37 38 26 3 -3 2 -5 -1 -5 -4 0
-2 -12 3 -26 7 -17 7 -23 -1 -19 -7 5 -8 -5 -4 -29 5 -26 3 -43 -9 -61 -12
-18 -13 -25 -4 -25 8 0 9 -3 3 -8 -11 -7 -13 -57 -3 -67 7 -7 1 -83 -9 -98 -4
-7 -6 -24 -4 -39 2 -26 -11 -60 -33 -85 -14 -15 -128 -160 -216 -276 l-22 -27
824 0 823 1 -40 32 c-22 18 -71 60 -110 94 -38 35 -104 81 -145 103 -107 58
-147 83 -178 112 -36 33 -73 57 -108 68 -91 28 -229 82 -299 117 -44 23 -107
46 -140 53 -33 7 -72 23 -87 35 -15 13 -42 26 -60 30 -18 4 -54 21 -80 38 -41
28 -48 37 -49 67 -1 19 -3 71 -5 115 -3 86 -1 98 44 220 16 44 33 100 37 125
4 25 22 90 41 145 24 71 30 103 23 112 -7 7 -8 30 -4 55 7 46 11 59 43 127 18
39 19 48 8 70 -11 22 -11 44 3 136 19 122 21 400 4 473 -6 24 -7 45 -2 48 5 3
9 16 9 30 0 14 4 23 8 20 4 -2 14 5 22 17 12 20 12 21 -3 8 -20 -16 -49 -8
-42 12 3 7 15 13 26 14 26 2 45 18 62 52 13 25 11 30 -16 62 -16 19 -27 26
-24 17 3 -10 2 -20 -3 -23 -13 -8 -13 17 0 51 8 20 7 31 -3 43 -28 32 -29 45
-2 21 l27 -25 -28 52 c-16 29 -39 58 -52 64 -14 8 -18 15 -11 19 6 5 3 9 -9
12 -13 4 -22 18 -26 42 -7 39 -15 43 -46 24 -17 -11 -22 -10 -30 2 -5 8 -7 17
-4 21 2 4 -4 5 -15 2 -10 -3 -22 0 -25 6 -4 6 -20 11 -37 11 -16 0 -29 4 -29
10 0 13 -41 60 -52 60 -16 0 -50 -38 -43 -49 3 -6 1 -11 -6 -11 -8 0 -10 11
-6 35 5 32 -6 50 -15 23 -3 -7 -12 -9 -23 -4 -16 6 -17 9 -5 16 12 8 11 10 -5
10 -11 0 -28 -9 -38 -20 -16 -19 -44 -29 -33 -11 3 4 -6 6 -20 3 -23 -4 -25
-3 -14 14 6 11 26 30 43 43 27 20 53 60 76 115 2 5 -16 -11 -39 -35 -24 -24
-40 -36 -37 -26 6 17 3 18 -33 12 -42 -7 -57 8 -19 20 11 4 18 9 16 12 -3 2
-23 -5 -46 -17 -23 -11 -41 -18 -41 -14 0 4 -6 2 -13 -4 -7 -6 -25 -13 -40
-16 -15 -2 -36 -8 -47 -11 -27 -8 -25 7 3 33 27 26 46 29 26 5 -13 -15 -12
-15 7 -3 12 7 26 21 33 31 13 22 8 25 -9 5z m-385 -156 c3 -6 -4 -10 -17 -10
-18 0 -20 2 -8 10 19 12 18 12 25 0z m599 -5 c3 -8 1 -15 -4 -15 -6 0 -10 7
-10 15 0 8 2 15 4 15 2 0 6 -7 10 -15z m343 -171 c-9 -9 -28 6 -21 18 4 6 10
6 17 -1 6 -6 8 -13 4 -17z m148 -273 c3 -5 1 -12 -5 -16 -5 -3 -10 1 -10 9 0
18 6 21 15 7z m-262 -685 c16 -11 24 -22 18 -24 -5 -2 -7 -10 -4 -18 3 -8 0
-14 -6 -14 -6 0 -11 3 -11 8 0 4 -15 13 -32 21 -43 19 -79 47 -71 55 11 11 77
-6 106 -28z m-144 -82 c-15 -18 -22 -13 -13 10 3 9 10 13 16 10 5 -3 4 -12 -3
-20z m248 -31 c-3 -10 -5 -2 -5 17 0 19 2 27 5 18 2 -10 2 -26 0 -35z m-1346
-65 c11 -21 11 -22 -4 -9 -10 7 -17 17 -17 22 0 15 9 10 21 -13z m622 -395
c-3 -21 -10 -42 -16 -48 -7 -7 -8 -4 -3 8 3 10 6 32 6 48 0 16 4 29 9 29 6 0
7 -17 4 -37z m59 23 c10 -10 19 -11 32 -4 13 8 22 6 34 -6 11 -10 12 -16 4
-16 -21 0 -13 -46 12 -68 14 -11 28 -37 32 -57 4 -25 9 -33 15 -24 6 10 13 10
34 1 22 -10 25 -15 15 -27 -16 -19 -29 -19 -66 -1 -23 12 -37 13 -71 3 -33 -8
-47 -8 -66 2 -19 10 -31 9 -75 -8 -64 -26 -80 -26 -84 -3 -4 20 20 52 39 52 7
0 13 7 13 16 0 8 4 13 9 9 5 -3 12 -1 16 5 4 6 11 8 16 4 5 -3 23 9 39 28 l30
33 0 -29 c0 -36 5 -32 14 13 5 29 3 33 -12 29 -15 -4 -17 0 -14 29 5 36 13 41
34 19z m105 -83 c-3 -3 -11 -2 -17 2 -9 6 -9 10 1 16 14 8 27 -7 16 -18z m-7
-255 c0 -5 -14 -8 -31 -8 -16 0 -28 4 -25 9 7 11 56 9 56 -1z m197 -150 c-3
-8 -6 -5 -6 6 -1 11 2 17 5 13 3 -3 4 -12 1 -19z m18 -28 c3 -5 1 -10 -4 -10
-6 0 -11 5 -11 10 0 6 2 10 4 10 3 0 8 -4 11 -10z m-15 -40 c0 -5 -5 -10 -11
-10 -5 0 -7 5 -4 10 3 6 8 10 11 10 2 0 4 -4 4 -10z m-181 -291 c-16 -10 -23
-4 -14 10 3 6 11 8 17 5 6 -4 5 -9 -3 -15z"/>
<path d="M2495 1610 c-3 -5 -2 -10 4 -10 5 0 13 5 16 10 3 6 2 10 -4 10 -5 0
-13 -4 -16 -10z"/>
<path d="M2040 2495 c-19 -7 -47 -25 -62 -39 -41 -40 -53 -109 -14 -77 14 12
54 22 86 21 8 0 36 0 62 0 63 0 68 -15 11 -36 -27 -9 -67 -31 -89 -48 -39 -29
-69 -79 -58 -97 3 -5 28 -7 57 -5 29 2 71 -1 95 -6 38 -10 41 -12 25 -24 -17
-12 -16 -13 5 -14 12 0 22 -5 22 -11 0 -8 5 -8 15 1 20 16 45 6 45 -19 0 -24
32 -36 59 -22 11 6 26 8 34 5 8 -3 21 2 30 10 9 9 19 16 24 16 4 0 18 17 30
38 26 46 23 113 -7 169 -11 20 -18 45 -15 54 4 10 -9 29 -35 53 l-40 36 -94 0
c-51 0 -106 2 -122 4 -16 2 -45 -1 -64 -9z m236 -231 c-30 -21 -35 -17 -23 16
10 27 13 28 27 14 13 -14 13 -17 -4 -30z m-136 6 c6 -11 7 -20 2 -20 -10 0
-32 21 -32 32 0 16 19 8 30 -12z"/>
<path d="M3110 2460 c0 -5 5 -10 11 -10 5 0 7 5 4 10 -3 6 -8 10 -11 10 -2 0
-4 -4 -4 -10z"/>
<path d="M2595 1988 c5 -26 24 -48 40 -48 12 0 39 -34 57 -70 5 -8 6 8 3 37
-6 59 -35 97 -78 100 -21 1 -25 -2 -22 -19z"/>
<path d="M1780 1865 c7 -8 19 -15 27 -15 13 0 13 3 3 15 -7 8 -19 15 -27 15
-13 0 -13 -3 -3 -15z"/>
<path d="M2900 1720 c0 -5 5 -10 10 -10 6 0 10 5 10 10 0 6 -4 10 -10 10 -5 0
-10 -4 -10 -10z"/>
<path d="M1990 1490 c0 -5 5 -10 10 -10 6 0 10 5 10 10 0 6 -4 10 -10 10 -5 0
-10 -4 -10 -10z"/>
<path d="M1947 1389 c4 -13 8 -18 11 -10 2 7 -1 18 -6 23 -8 8 -9 4 -5 -13z"/>
<path d="M1898 1209 c-21 -5 -71 -25 -110 -44 -40 -19 -78 -35 -84 -35 -7 0
-54 -16 -105 -36 -52 -20 -134 -49 -184 -65 -152 -48 -399 -134 -425 -149 -14
-7 -29 -19 -33 -26 -4 -7 -58 -52 -121 -98 -122 -92 -227 -197 -264 -264 l-23
-42 701 0 700 0 11 28 c25 64 33 152 20 235 -22 145 -21 141 -40 123 -15 -14
-19 -11 -40 32 -33 68 -49 104 -56 130 -9 31 29 106 71 140 24 19 34 35 34 55
0 15 -3 27 -7 26 -5 -1 -25 -5 -45 -10z"/>
<path d="M2587 1203 c-4 -3 -7 -11 -7 -16 0 -6 3 -7 7 -4 3 4 11 3 17 -3 8 -6
12 -3 12 11 0 19 -16 26 -29 12z"/>
<path d="M2646 1194 c-9 -22 -2 -27 24 -19 17 5 19 10 9 21 -15 18 -25 18 -33
-2z"/>
<path d="M2950 1120 c0 -5 5 -10 10 -10 6 0 10 5 10 10 0 6 -4 10 -10 10 -5 0
-10 -4 -10 -10z"/>
<path d="M2895 1011 c-6 -11 9 -23 19 -14 9 9 7 23 -3 23 -6 0 -12 -4 -16 -9z"/>
<path d="M2234 929 c-3 -6 1 -18 10 -27 15 -15 18 -15 26 -2 5 9 5 19 -2 27
-13 16 -25 17 -34 2z"/>
<path d="M2496 931 c-3 -5 1 -11 9 -15 8 -3 15 -1 15 4 0 13 -18 22 -24 11z"/>
</g>
</svg>
